<mxfile host="app.diagrams.net" modified="2024-04-08T14:39:38.125Z" agent="Mozilla/5.0 (Macintosh; Intel Mac OS X 10_15_7) AppleWebKit/537.36 (KHTML, like Gecko) Chrome/123.0.0.0 Safari/537.36" etag="nLYMRUu2L9tJtujOx7U9" version="24.2.2" type="github">
  <diagram id="R2lEEEUBdFMjLlhIrx00" name="Page-1">
    <mxGraphModel dx="2122" dy="753" grid="1" gridSize="10" guides="1" tooltips="1" connect="1" arrows="1" fold="1" page="1" pageScale="1" pageWidth="850" pageHeight="1100" background="#000000" math="0" shadow="0" extFonts="Permanent Marker^https://fonts.googleapis.com/css?family=Permanent+Marker">
      <root>
        <mxCell id="0" />
        <mxCell id="1" parent="0" />
        <mxCell id="4SjUEF4Vs4CtEPpjbndP-1" value="" style="ellipse;whiteSpace=wrap;html=1;aspect=fixed;strokeColor=#FF99FF;fillColor=#FF99FF;" vertex="1" parent="1">
          <mxGeometry x="160" y="80" width="80" height="80" as="geometry" />
        </mxCell>
        <mxCell id="4SjUEF4Vs4CtEPpjbndP-2" value="" style="ellipse;whiteSpace=wrap;html=1;aspect=fixed;strokeColor=#FF99FF;fillColor=#FF99FF;" vertex="1" parent="1">
          <mxGeometry x="660" y="80" width="80" height="80" as="geometry" />
        </mxCell>
        <mxCell id="4SjUEF4Vs4CtEPpjbndP-3" value="" style="ellipse;whiteSpace=wrap;html=1;aspect=fixed;strokeColor=#FF99FF;fillColor=#FF99FF;" vertex="1" parent="1">
          <mxGeometry x="400" y="80" width="80" height="80" as="geometry" />
        </mxCell>
        <mxCell id="4SjUEF4Vs4CtEPpjbndP-4" value="" style="ellipse;whiteSpace=wrap;html=1;aspect=fixed;strokeColor=#FF99FF;fillColor=#FF99FF;" vertex="1" parent="1">
          <mxGeometry x="400" y="240" width="80" height="80" as="geometry" />
        </mxCell>
        <mxCell id="4SjUEF4Vs4CtEPpjbndP-5" value="" style="endArrow=classic;html=1;rounded=0;strokeColor=#FF99FF;strokeWidth=3;entryX=0;entryY=0.5;entryDx=0;entryDy=0;" edge="1" parent="1" target="4SjUEF4Vs4CtEPpjbndP-2">
          <mxGeometry width="50" height="50" relative="1" as="geometry">
            <mxPoint x="470" y="119.5" as="sourcePoint" />
            <mxPoint x="590" y="119.5" as="targetPoint" />
          </mxGeometry>
        </mxCell>
        <mxCell id="4SjUEF4Vs4CtEPpjbndP-10" value="" style="endArrow=classic;html=1;rounded=0;strokeColor=#FF99FF;strokeWidth=3;exitX=0;exitY=0.5;exitDx=0;exitDy=0;" edge="1" parent="1" source="4SjUEF4Vs4CtEPpjbndP-3">
          <mxGeometry width="50" height="50" relative="1" as="geometry">
            <mxPoint x="420" y="160" as="sourcePoint" />
            <mxPoint x="240" y="120" as="targetPoint" />
            <Array as="points" />
          </mxGeometry>
        </mxCell>
        <mxCell id="4SjUEF4Vs4CtEPpjbndP-11" value="" style="endArrow=classic;html=1;rounded=0;strokeColor=#FF99FF;strokeWidth=3;" edge="1" parent="1">
          <mxGeometry width="50" height="50" relative="1" as="geometry">
            <mxPoint x="440" y="160" as="sourcePoint" />
            <mxPoint x="440" y="240" as="targetPoint" />
          </mxGeometry>
        </mxCell>
        <mxCell id="4SjUEF4Vs4CtEPpjbndP-12" value="" style="endArrow=classic;html=1;rounded=0;strokeColor=#FF99FF;strokeWidth=3;exitX=0.5;exitY=1;exitDx=0;exitDy=0;entryX=0.5;entryY=0;entryDx=0;entryDy=0;" edge="1" parent="1" source="4SjUEF4Vs4CtEPpjbndP-1" target="4SjUEF4Vs4CtEPpjbndP-14">
          <mxGeometry width="50" height="50" relative="1" as="geometry">
            <mxPoint x="120" y="300" as="sourcePoint" />
            <mxPoint x="80" y="280" as="targetPoint" />
          </mxGeometry>
        </mxCell>
        <mxCell id="4SjUEF4Vs4CtEPpjbndP-13" value="" style="endArrow=classic;html=1;rounded=0;strokeColor=#FF99FF;strokeWidth=3;exitX=0;exitY=0;exitDx=0;exitDy=0;entryX=1;entryY=1;entryDx=0;entryDy=0;" edge="1" parent="1" source="4SjUEF4Vs4CtEPpjbndP-23" target="4SjUEF4Vs4CtEPpjbndP-1">
          <mxGeometry width="50" height="50" relative="1" as="geometry">
            <mxPoint x="220" y="150" as="sourcePoint" />
            <mxPoint x="360" y="420" as="targetPoint" />
          </mxGeometry>
        </mxCell>
        <mxCell id="4SjUEF4Vs4CtEPpjbndP-14" value="" style="ellipse;whiteSpace=wrap;html=1;aspect=fixed;strokeColor=#FF99FF;fillColor=#FF99FF;" vertex="1" parent="1">
          <mxGeometry x="160" y="240" width="80" height="80" as="geometry" />
        </mxCell>
        <mxCell id="4SjUEF4Vs4CtEPpjbndP-15" value="" style="ellipse;whiteSpace=wrap;html=1;aspect=fixed;strokeColor=#FF99FF;fillColor=#FF99FF;" vertex="1" parent="1">
          <mxGeometry x="-320" y="440" width="80" height="80" as="geometry" />
        </mxCell>
        <mxCell id="4SjUEF4Vs4CtEPpjbndP-16" value="" style="endArrow=classic;html=1;rounded=0;strokeColor=#FF99FF;strokeWidth=3;exitX=0.5;exitY=0;exitDx=0;exitDy=0;" edge="1" parent="1" source="4SjUEF4Vs4CtEPpjbndP-15" target="4SjUEF4Vs4CtEPpjbndP-1">
          <mxGeometry width="50" height="50" relative="1" as="geometry">
            <mxPoint x="-80" y="160" as="sourcePoint" />
            <mxPoint x="-70" y="250" as="targetPoint" />
            <Array as="points">
              <mxPoint x="-120" y="120" />
            </Array>
          </mxGeometry>
        </mxCell>
        <mxCell id="4SjUEF4Vs4CtEPpjbndP-17" value="" style="ellipse;whiteSpace=wrap;html=1;aspect=fixed;strokeColor=#FF99FF;fillColor=#FF99FF;" vertex="1" parent="1">
          <mxGeometry x="-80" y="400" width="80" height="80" as="geometry" />
        </mxCell>
        <mxCell id="4SjUEF4Vs4CtEPpjbndP-18" value="" style="endArrow=classic;html=1;rounded=0;strokeColor=#FF99FF;strokeWidth=3;entryX=0;entryY=0.5;entryDx=0;entryDy=0;" edge="1" parent="1" target="4SjUEF4Vs4CtEPpjbndP-24">
          <mxGeometry width="50" height="50" relative="1" as="geometry">
            <mxPoint x="480" y="439.5" as="sourcePoint" />
            <mxPoint x="600" y="439.5" as="targetPoint" />
          </mxGeometry>
        </mxCell>
        <mxCell id="4SjUEF4Vs4CtEPpjbndP-19" value="" style="endArrow=classic;html=1;rounded=0;strokeColor=#FF99FF;strokeWidth=3;exitX=0.5;exitY=0;exitDx=0;exitDy=0;entryX=0;entryY=1;entryDx=0;entryDy=0;" edge="1" parent="1" source="4SjUEF4Vs4CtEPpjbndP-17" target="4SjUEF4Vs4CtEPpjbndP-1">
          <mxGeometry width="50" height="50" relative="1" as="geometry">
            <mxPoint x="10" y="279" as="sourcePoint" />
            <mxPoint x="-70" y="210" as="targetPoint" />
          </mxGeometry>
        </mxCell>
        <mxCell id="4SjUEF4Vs4CtEPpjbndP-20" value="" style="endArrow=classic;html=1;rounded=0;strokeColor=#FF99FF;strokeWidth=3;exitX=1;exitY=0.5;exitDx=0;exitDy=0;" edge="1" parent="1" source="4SjUEF4Vs4CtEPpjbndP-17">
          <mxGeometry width="50" height="50" relative="1" as="geometry">
            <mxPoint x="15" y="440" as="sourcePoint" />
            <mxPoint x="120" y="440" as="targetPoint" />
          </mxGeometry>
        </mxCell>
        <mxCell id="4SjUEF4Vs4CtEPpjbndP-22" value="" style="endArrow=classic;html=1;rounded=0;strokeColor=#FF99FF;strokeWidth=3;exitX=0.5;exitY=1;exitDx=0;exitDy=0;entryX=0.5;entryY=0;entryDx=0;entryDy=0;" edge="1" parent="1" source="4SjUEF4Vs4CtEPpjbndP-23" target="4SjUEF4Vs4CtEPpjbndP-25">
          <mxGeometry width="50" height="50" relative="1" as="geometry">
            <mxPoint x="440" y="549" as="sourcePoint" />
            <mxPoint x="440" y="560" as="targetPoint" />
          </mxGeometry>
        </mxCell>
        <mxCell id="4SjUEF4Vs4CtEPpjbndP-23" value="" style="ellipse;whiteSpace=wrap;html=1;aspect=fixed;strokeColor=#FF99FF;fillColor=#FF99FF;" vertex="1" parent="1">
          <mxGeometry x="400" y="400" width="80" height="80" as="geometry" />
        </mxCell>
        <mxCell id="4SjUEF4Vs4CtEPpjbndP-24" value="" style="ellipse;whiteSpace=wrap;html=1;aspect=fixed;strokeColor=#FF99FF;fillColor=#FF99FF;" vertex="1" parent="1">
          <mxGeometry x="670" y="400" width="80" height="80" as="geometry" />
        </mxCell>
        <mxCell id="4SjUEF4Vs4CtEPpjbndP-25" value="" style="ellipse;whiteSpace=wrap;html=1;aspect=fixed;strokeColor=#FF99FF;fillColor=#FF99FF;" vertex="1" parent="1">
          <mxGeometry x="400" y="560" width="80" height="80" as="geometry" />
        </mxCell>
        <mxCell id="4SjUEF4Vs4CtEPpjbndP-26" value="" style="ellipse;whiteSpace=wrap;html=1;aspect=fixed;strokeColor=#FF99FF;fillColor=#FF99FF;" vertex="1" parent="1">
          <mxGeometry x="120" y="400" width="80" height="80" as="geometry" />
        </mxCell>
        <mxCell id="4SjUEF4Vs4CtEPpjbndP-28" value="" style="endArrow=classic;html=1;rounded=0;strokeColor=#FF99FF;strokeWidth=3;exitX=0.5;exitY=1;exitDx=0;exitDy=0;entryX=0;entryY=0.5;entryDx=0;entryDy=0;" edge="1" parent="1" source="4SjUEF4Vs4CtEPpjbndP-15" target="4SjUEF4Vs4CtEPpjbndP-50">
          <mxGeometry width="50" height="50" relative="1" as="geometry">
            <mxPoint x="-350" y="550" as="sourcePoint" />
            <mxPoint x="-240" y="920" as="targetPoint" />
            <Array as="points">
              <mxPoint x="-320" y="640" />
              <mxPoint x="-210" y="1030" />
            </Array>
          </mxGeometry>
        </mxCell>
        <mxCell id="4SjUEF4Vs4CtEPpjbndP-29" value="" style="endArrow=classic;html=1;rounded=0;strokeColor=#FF99FF;strokeWidth=3;entryX=0;entryY=0.5;entryDx=0;entryDy=0;exitX=1;exitY=0.5;exitDx=0;exitDy=0;" edge="1" parent="1" source="4SjUEF4Vs4CtEPpjbndP-35" target="4SjUEF4Vs4CtEPpjbndP-33">
          <mxGeometry width="50" height="50" relative="1" as="geometry">
            <mxPoint x="640" y="650" as="sourcePoint" />
            <mxPoint x="490" y="650" as="targetPoint" />
          </mxGeometry>
        </mxCell>
        <mxCell id="4SjUEF4Vs4CtEPpjbndP-30" value="" style="endArrow=classic;html=1;rounded=0;strokeColor=#FF99FF;strokeWidth=3;entryX=1;entryY=0.5;entryDx=0;entryDy=0;exitX=0;exitY=0.5;exitDx=0;exitDy=0;" edge="1" parent="1" source="4SjUEF4Vs4CtEPpjbndP-35" target="4SjUEF4Vs4CtEPpjbndP-34">
          <mxGeometry width="50" height="50" relative="1" as="geometry">
            <mxPoint x="190" y="570" as="sourcePoint" />
            <mxPoint x="310" y="570" as="targetPoint" />
          </mxGeometry>
        </mxCell>
        <mxCell id="4SjUEF4Vs4CtEPpjbndP-32" value="" style="endArrow=classic;html=1;rounded=0;strokeColor=#FF99FF;strokeWidth=3;entryX=0;entryY=0.5;entryDx=0;entryDy=0;exitX=0.5;exitY=1;exitDx=0;exitDy=0;" edge="1" parent="1" source="4SjUEF4Vs4CtEPpjbndP-17" target="4SjUEF4Vs4CtEPpjbndP-34">
          <mxGeometry width="50" height="50" relative="1" as="geometry">
            <mxPoint x="40" y="600" as="sourcePoint" />
            <mxPoint x="160" y="599.5" as="targetPoint" />
          </mxGeometry>
        </mxCell>
        <mxCell id="4SjUEF4Vs4CtEPpjbndP-33" value="" style="ellipse;whiteSpace=wrap;html=1;aspect=fixed;strokeColor=#FF99FF;fillColor=#FF99FF;" vertex="1" parent="1">
          <mxGeometry x="640" y="680" width="80" height="80" as="geometry" />
        </mxCell>
        <mxCell id="4SjUEF4Vs4CtEPpjbndP-34" value="" style="ellipse;whiteSpace=wrap;html=1;aspect=fixed;strokeColor=#FF99FF;fillColor=#FF99FF;" vertex="1" parent="1">
          <mxGeometry x="160" y="640" width="80" height="80" as="geometry" />
        </mxCell>
        <mxCell id="4SjUEF4Vs4CtEPpjbndP-35" value="" style="ellipse;whiteSpace=wrap;html=1;aspect=fixed;strokeColor=#FF99FF;fillColor=#FF99FF;" vertex="1" parent="1">
          <mxGeometry x="410" y="680" width="80" height="80" as="geometry" />
        </mxCell>
        <mxCell id="4SjUEF4Vs4CtEPpjbndP-36" value="" style="ellipse;whiteSpace=wrap;html=1;aspect=fixed;strokeColor=#FF99FF;fillColor=#FF99FF;" vertex="1" parent="1">
          <mxGeometry x="160" y="800" width="80" height="80" as="geometry" />
        </mxCell>
        <mxCell id="4SjUEF4Vs4CtEPpjbndP-37" value="" style="endArrow=classic;html=1;rounded=0;strokeColor=#FF99FF;strokeWidth=3;" edge="1" parent="1">
          <mxGeometry width="50" height="50" relative="1" as="geometry">
            <mxPoint x="180" y="560" as="sourcePoint" />
            <mxPoint x="300" y="560" as="targetPoint" />
          </mxGeometry>
        </mxCell>
        <mxCell id="4SjUEF4Vs4CtEPpjbndP-38" value="" style="endArrow=classic;html=1;rounded=0;strokeColor=#FF99FF;strokeWidth=3;exitX=0.5;exitY=1;exitDx=0;exitDy=0;entryX=0.5;entryY=0;entryDx=0;entryDy=0;" edge="1" parent="1" source="4SjUEF4Vs4CtEPpjbndP-44" target="4SjUEF4Vs4CtEPpjbndP-47">
          <mxGeometry width="50" height="50" relative="1" as="geometry">
            <mxPoint x="390" y="1050" as="sourcePoint" />
            <mxPoint x="450" y="1120" as="targetPoint" />
          </mxGeometry>
        </mxCell>
        <mxCell id="4SjUEF4Vs4CtEPpjbndP-40" value="" style="endArrow=classic;html=1;rounded=0;strokeColor=#FF99FF;strokeWidth=3;entryX=0.5;entryY=0;entryDx=0;entryDy=0;exitX=0.5;exitY=1;exitDx=0;exitDy=0;" edge="1" parent="1" source="4SjUEF4Vs4CtEPpjbndP-35" target="4SjUEF4Vs4CtEPpjbndP-43">
          <mxGeometry width="50" height="50" relative="1" as="geometry">
            <mxPoint x="260" y="640" as="sourcePoint" />
            <mxPoint x="380" y="640" as="targetPoint" />
          </mxGeometry>
        </mxCell>
        <mxCell id="4SjUEF4Vs4CtEPpjbndP-41" value="" style="endArrow=classic;html=1;rounded=0;strokeColor=#FF99FF;strokeWidth=3;exitX=0;exitY=0;exitDx=0;exitDy=0;entryX=1;entryY=1;entryDx=0;entryDy=0;" edge="1" parent="1" source="4SjUEF4Vs4CtEPpjbndP-44" target="4SjUEF4Vs4CtEPpjbndP-34">
          <mxGeometry width="50" height="50" relative="1" as="geometry">
            <mxPoint x="230" y="780" as="sourcePoint" />
            <mxPoint x="350" y="780" as="targetPoint" />
          </mxGeometry>
        </mxCell>
        <mxCell id="4SjUEF4Vs4CtEPpjbndP-42" value="" style="endArrow=classic;html=1;rounded=0;strokeColor=#FF99FF;strokeWidth=3;exitX=0.5;exitY=1;exitDx=0;exitDy=0;entryX=0.5;entryY=0;entryDx=0;entryDy=0;" edge="1" parent="1" source="4SjUEF4Vs4CtEPpjbndP-34" target="4SjUEF4Vs4CtEPpjbndP-36">
          <mxGeometry width="50" height="50" relative="1" as="geometry">
            <mxPoint x="220" y="740" as="sourcePoint" />
            <mxPoint x="340" y="740" as="targetPoint" />
          </mxGeometry>
        </mxCell>
        <mxCell id="4SjUEF4Vs4CtEPpjbndP-43" value="" style="ellipse;whiteSpace=wrap;html=1;aspect=fixed;strokeColor=#FF99FF;fillColor=#FF99FF;" vertex="1" parent="1">
          <mxGeometry x="410" y="800" width="80" height="80" as="geometry" />
        </mxCell>
        <mxCell id="4SjUEF4Vs4CtEPpjbndP-44" value="" style="ellipse;whiteSpace=wrap;html=1;aspect=fixed;strokeColor=#FF99FF;fillColor=#FF99FF;" vertex="1" parent="1">
          <mxGeometry x="410" y="920" width="80" height="80" as="geometry" />
        </mxCell>
        <mxCell id="4SjUEF4Vs4CtEPpjbndP-47" value="" style="ellipse;whiteSpace=wrap;html=1;aspect=fixed;strokeColor=#FF99FF;fillColor=#FF99FF;" vertex="1" parent="1">
          <mxGeometry x="410" y="1040" width="80" height="80" as="geometry" />
        </mxCell>
        <mxCell id="4SjUEF4Vs4CtEPpjbndP-50" value="" style="ellipse;whiteSpace=wrap;html=1;aspect=fixed;strokeColor=#FF99FF;fillColor=#FF99FF;" vertex="1" parent="1">
          <mxGeometry x="200" y="1120" width="80" height="80" as="geometry" />
        </mxCell>
        <mxCell id="4SjUEF4Vs4CtEPpjbndP-51" value="&lt;font color=&quot;#ff0000&quot;&gt;pers:Person&lt;/font&gt;" style="text;strokeColor=none;align=center;fillColor=none;html=1;verticalAlign=middle;whiteSpace=wrap;rounded=0;" vertex="1" parent="1">
          <mxGeometry x="150" y="40" width="120" height="30" as="geometry" />
        </mxCell>
        <mxCell id="4SjUEF4Vs4CtEPpjbndP-52" value="&lt;font color=&quot;#ff0000&quot;&gt;pers:GivenName&lt;/font&gt;&lt;span style=&quot;color: rgba(0, 0, 0, 0); font-family: monospace; font-size: 0px; text-align: start; text-wrap: nowrap;&quot;&gt;%3CmxGraphModel%3E%3Croot%3E%3CmxCell%20id%3D%220%22%2F%3E%3CmxCell%20id%3D%221%22%20parent%3D%220%22%2F%3E%3CmxCell%20id%3D%222%22%20value%3D%22%26lt%3Bfont%20color%3D%26quot%3B%23ff0000%26quot%3B%26gt%3Bpers%3APerson%26lt%3B%2Ffont%26gt%3B%22%20style%3D%22text%3BstrokeColor%3Dnone%3Balign%3Dcenter%3BfillColor%3Dnone%3Bhtml%3D1%3BverticalAlign%3Dmiddle%3BwhiteSpace%3Dwrap%3Brounded%3D0%3B%22%20vertex%3D%221%22%20parent%3D%221%22%3E%3CmxGeometry%20x%3D%22150%22%20y%3D%2240%22%20width%3D%22120%22%20height%3D%2230%22%20as%3D%22geometry%22%2F%3E%3C%2FmxCell%3E%3C%2Froot%3E%3C%2FmxGraphModel%3E&lt;/span&gt;" style="text;strokeColor=none;align=center;fillColor=none;html=1;verticalAlign=middle;whiteSpace=wrap;rounded=0;" vertex="1" parent="1">
          <mxGeometry x="390" y="40" width="120" height="30" as="geometry" />
        </mxCell>
        <mxCell id="4SjUEF4Vs4CtEPpjbndP-53" value="&lt;font color=&quot;#ff0000&quot;&gt;pers:GivenSurname&lt;/font&gt;&lt;span style=&quot;color: rgba(0, 0, 0, 0); font-family: monospace; font-size: 0px; text-align: start; text-wrap: nowrap;&quot;&gt;%3CmxGraphModel%3E%3Croot%3E%3CmxCell%20id%3D%220%22%2F%3E%3CmxCell%20id%3D%221%22%20parent%3D%220%22%2F%3E%3CmxCell%20id%3D%222%22%20value%3D%22%26lt%3Bfont%20color%3D%26quot%3B%23ff0000%26quot%3B%26gt%3Bpers%3APerson%26lt%3B%2Ffont%26gt%3B%22%20style%3D%22text%3BstrokeColor%3Dnone%3Balign%3Dcenter%3BfillColor%3Dnone%3Bhtml%3D1%3BverticalAlign%3Dmiddle%3BwhiteSpace%3Dwrap%3Brounded%3D0%3B%22%20vertex%3D%221%22%20parent%3D%221%22%3E%3CmxGeometry%20x%3D%22150%22%20y%3D%2240%22%20width%3D%22120%22%20height%3D%2230%22%20as%3D%22geometry%22%2F%3E%3C%2FmxCell%3E%3C%2Froot%3E%3C%2FmxGraphModel%3E&lt;/span&gt;" style="text;strokeColor=none;align=center;fillColor=none;html=1;verticalAlign=middle;whiteSpace=wrap;rounded=0;" vertex="1" parent="1">
          <mxGeometry x="425" y="370" width="120" height="30" as="geometry" />
        </mxCell>
        <mxCell id="4SjUEF4Vs4CtEPpjbndP-54" value="&lt;font color=&quot;#ffffff&quot;&gt;rdfs:Literal&lt;/font&gt;" style="text;strokeColor=none;align=center;fillColor=none;html=1;verticalAlign=middle;whiteSpace=wrap;rounded=0;" vertex="1" parent="1">
          <mxGeometry x="640" y="50" width="120" height="30" as="geometry" />
        </mxCell>
        <mxCell id="4SjUEF4Vs4CtEPpjbndP-55" value="&lt;font color=&quot;#ffffff&quot;&gt;rdfs:Literal&lt;/font&gt;" style="text;strokeColor=none;align=center;fillColor=none;html=1;verticalAlign=middle;whiteSpace=wrap;rounded=0;" vertex="1" parent="1">
          <mxGeometry x="650" y="370" width="120" height="30" as="geometry" />
        </mxCell>
        <mxCell id="4SjUEF4Vs4CtEPpjbndP-56" value="&lt;font color=&quot;#ffffff&quot;&gt;rdfs:Literal&lt;/font&gt;" style="text;strokeColor=none;align=center;fillColor=none;html=1;verticalAlign=middle;whiteSpace=wrap;rounded=0;" vertex="1" parent="1">
          <mxGeometry x="640" y="650" width="120" height="30" as="geometry" />
        </mxCell>
        <mxCell id="4SjUEF4Vs4CtEPpjbndP-57" value="&lt;font color=&quot;#ffffff&quot;&gt;rdfs:range&lt;/font&gt;" style="text;strokeColor=none;align=center;fillColor=none;html=1;verticalAlign=middle;whiteSpace=wrap;rounded=0;" vertex="1" parent="1">
          <mxGeometry x="520" y="130" width="120" height="30" as="geometry" />
        </mxCell>
        <mxCell id="4SjUEF4Vs4CtEPpjbndP-58" value="&lt;font color=&quot;#ffffff&quot;&gt;owl:DataTypeProperty&lt;/font&gt;" style="text;strokeColor=none;align=center;fillColor=none;html=1;verticalAlign=middle;whiteSpace=wrap;rounded=0;" vertex="1" parent="1">
          <mxGeometry x="440" y="320" width="120" height="30" as="geometry" />
        </mxCell>
        <mxCell id="4SjUEF4Vs4CtEPpjbndP-59" value="&lt;font color=&quot;#ffffff&quot;&gt;rdfs:domain&lt;/font&gt;" style="text;strokeColor=none;align=center;fillColor=none;html=1;verticalAlign=middle;whiteSpace=wrap;rounded=0;" vertex="1" parent="1">
          <mxGeometry x="260" y="210" width="120" height="30" as="geometry" />
        </mxCell>
        <mxCell id="4SjUEF4Vs4CtEPpjbndP-62" value="&lt;font color=&quot;#ffffff&quot;&gt;rdfs:domain&lt;/font&gt;" style="text;strokeColor=none;align=center;fillColor=none;html=1;verticalAlign=middle;whiteSpace=wrap;rounded=0;" vertex="1" parent="1">
          <mxGeometry x="260" y="90" width="120" height="30" as="geometry" />
        </mxCell>
        <mxCell id="4SjUEF4Vs4CtEPpjbndP-64" value="&lt;font color=&quot;#ffffff&quot;&gt;owl:DataTypeProperty&lt;/font&gt;" style="text;strokeColor=none;align=center;fillColor=none;html=1;verticalAlign=middle;whiteSpace=wrap;rounded=0;" vertex="1" parent="1">
          <mxGeometry x="480" y="570" width="120" height="30" as="geometry" />
        </mxCell>
        <mxCell id="4SjUEF4Vs4CtEPpjbndP-65" value="&lt;font color=&quot;#ffffff&quot;&gt;rdfs:range&lt;/font&gt;" style="text;strokeColor=none;align=center;fillColor=none;html=1;verticalAlign=middle;whiteSpace=wrap;rounded=0;" vertex="1" parent="1">
          <mxGeometry x="510" y="440" width="120" height="30" as="geometry" />
        </mxCell>
        <mxCell id="4SjUEF4Vs4CtEPpjbndP-66" value="&lt;font color=&quot;#ffffff&quot;&gt;owl:Class&lt;/font&gt;" style="text;strokeColor=none;align=center;fillColor=none;html=1;verticalAlign=middle;whiteSpace=wrap;rounded=0;" vertex="1" parent="1">
          <mxGeometry x="150" y="330" width="120" height="30" as="geometry" />
        </mxCell>
        <mxCell id="4SjUEF4Vs4CtEPpjbndP-67" value="&lt;font color=&quot;#ffffff&quot;&gt;owl:ObjectProperty&lt;/font&gt;" style="text;strokeColor=none;align=center;fillColor=none;html=1;verticalAlign=middle;whiteSpace=wrap;rounded=0;" vertex="1" parent="1">
          <mxGeometry x="200" y="425" width="120" height="30" as="geometry" />
        </mxCell>
        <mxCell id="4SjUEF4Vs4CtEPpjbndP-68" value="&lt;font color=&quot;#ffffff&quot;&gt;rdfs:domain&lt;/font&gt;" style="text;strokeColor=none;align=center;fillColor=none;html=1;verticalAlign=middle;whiteSpace=wrap;rounded=0;" vertex="1" parent="1">
          <mxGeometry y="220" width="120" height="30" as="geometry" />
        </mxCell>
        <mxCell id="4SjUEF4Vs4CtEPpjbndP-69" value="&lt;font color=&quot;#ffffff&quot;&gt;rdfs:domain&lt;/font&gt;" style="text;strokeColor=none;align=center;fillColor=none;html=1;verticalAlign=middle;whiteSpace=wrap;rounded=0;" vertex="1" parent="1">
          <mxGeometry x="-240" y="130" width="120" height="30" as="geometry" />
        </mxCell>
        <mxCell id="4SjUEF4Vs4CtEPpjbndP-70" value="&lt;font color=&quot;#ff0000&quot;&gt;pers:BornInProvince&lt;/font&gt;" style="text;strokeColor=none;align=center;fillColor=none;html=1;verticalAlign=middle;whiteSpace=wrap;rounded=0;" vertex="1" parent="1">
          <mxGeometry x="-425" y="390" width="120" height="30" as="geometry" />
        </mxCell>
        <mxCell id="4SjUEF4Vs4CtEPpjbndP-71" value="&lt;font color=&quot;#ffffff&quot;&gt;rdfs:range&lt;/font&gt;" style="text;strokeColor=none;align=center;fillColor=none;html=1;verticalAlign=middle;whiteSpace=wrap;rounded=0;" vertex="1" parent="1">
          <mxGeometry x="-270" y="780" width="120" height="30" as="geometry" />
        </mxCell>
        <mxCell id="4SjUEF4Vs4CtEPpjbndP-73" value="&lt;font color=&quot;#ff0000&quot;&gt;pers:BornInCountry&lt;/font&gt;" style="text;strokeColor=none;align=center;fillColor=none;html=1;verticalAlign=middle;whiteSpace=wrap;rounded=0;" vertex="1" parent="1">
          <mxGeometry x="-20" y="390" width="120" height="30" as="geometry" />
        </mxCell>
        <mxCell id="4SjUEF4Vs4CtEPpjbndP-74" value="&lt;font color=&quot;#ffffff&quot;&gt;rdfs:range&lt;/font&gt;" style="text;strokeColor=none;align=center;fillColor=none;html=1;verticalAlign=middle;whiteSpace=wrap;rounded=0;" vertex="1" parent="1">
          <mxGeometry x="20" y="530" width="120" height="30" as="geometry" />
        </mxCell>
        <mxCell id="4SjUEF4Vs4CtEPpjbndP-75" value="&lt;font color=&quot;#ff0000&quot;&gt;countr:Country&lt;/font&gt;" style="text;strokeColor=none;align=center;fillColor=none;html=1;verticalAlign=middle;whiteSpace=wrap;rounded=0;" vertex="1" parent="1">
          <mxGeometry x="50" y="690" width="120" height="30" as="geometry" />
        </mxCell>
        <mxCell id="4SjUEF4Vs4CtEPpjbndP-76" value="&lt;font color=&quot;#ffffff&quot;&gt;rdfs:domain&lt;/font&gt;" style="text;strokeColor=none;align=center;fillColor=none;html=1;verticalAlign=middle;whiteSpace=wrap;rounded=0;" vertex="1" parent="1">
          <mxGeometry x="280" y="660" width="120" height="30" as="geometry" />
        </mxCell>
        <mxCell id="4SjUEF4Vs4CtEPpjbndP-77" value="&lt;font color=&quot;#ff0000&quot;&gt;pers:GivenName&lt;/font&gt;&lt;span style=&quot;color: rgba(0, 0, 0, 0); font-family: monospace; font-size: 0px; text-align: start; text-wrap: nowrap;&quot;&gt;%3CmxGraphModel%3E%3Croot%3E%3CmxCell%20id%3D%220%22%2F%3E%3CmxCell%20id%3D%221%22%20parent%3D%220%22%2F%3E%3CmxCell%20id%3D%222%22%20value%3D%22%26lt%3Bfont%20color%3D%26quot%3B%23ff0000%26quot%3B%26gt%3Bpers%3APerson%26lt%3B%2Ffont%26gt%3B%22%20style%3D%22text%3BstrokeColor%3Dnone%3Balign%3Dcenter%3BfillColor%3Dnone%3Bhtml%3D1%3BverticalAlign%3Dmiddle%3BwhiteSpace%3Dwrap%3Brounded%3D0%3B%22%20vertex%3D%221%22%20parent%3D%221%22%3E%3CmxGeometry%20x%3D%22150%22%20y%3D%2240%22%20width%3D%22120%22%20height%3D%2230%22%20as%3D%22geometry%22%2F%3E%3C%2FmxCell%3E%3C%2Froot%3E%3C%2FmxGraphModel%3E&lt;/span&gt;" style="text;strokeColor=none;align=center;fillColor=none;html=1;verticalAlign=middle;whiteSpace=wrap;rounded=0;" vertex="1" parent="1">
          <mxGeometry x="460" y="660" width="120" height="30" as="geometry" />
        </mxCell>
        <mxCell id="4SjUEF4Vs4CtEPpjbndP-78" value="&lt;font color=&quot;#ffffff&quot;&gt;rdfs:range&lt;/font&gt;" style="text;strokeColor=none;align=center;fillColor=none;html=1;verticalAlign=middle;whiteSpace=wrap;rounded=0;" vertex="1" parent="1">
          <mxGeometry x="500" y="720" width="120" height="30" as="geometry" />
        </mxCell>
        <mxCell id="4SjUEF4Vs4CtEPpjbndP-79" value="&lt;font color=&quot;#ffffff&quot;&gt;owl:DataTypeProperty&lt;/font&gt;" style="text;strokeColor=none;align=center;fillColor=none;html=1;verticalAlign=middle;whiteSpace=wrap;rounded=0;" vertex="1" parent="1">
          <mxGeometry x="500" y="825" width="120" height="30" as="geometry" />
        </mxCell>
        <mxCell id="4SjUEF4Vs4CtEPpjbndP-80" value="&lt;font color=&quot;#ffffff&quot;&gt;owl:Class&lt;/font&gt;" style="text;strokeColor=none;align=center;fillColor=none;html=1;verticalAlign=middle;whiteSpace=wrap;rounded=0;" vertex="1" parent="1">
          <mxGeometry x="140" y="880" width="120" height="30" as="geometry" />
        </mxCell>
        <mxCell id="4SjUEF4Vs4CtEPpjbndP-81" value="&lt;font color=&quot;#ff0000&quot;&gt;countr:BelongsTo&lt;/font&gt;" style="text;strokeColor=none;align=center;fillColor=none;html=1;verticalAlign=middle;whiteSpace=wrap;rounded=0;" vertex="1" parent="1">
          <mxGeometry x="470" y="910" width="120" height="30" as="geometry" />
        </mxCell>
        <mxCell id="4SjUEF4Vs4CtEPpjbndP-82" value="&lt;font color=&quot;#ffffff&quot;&gt;owl:ObjectProperty&lt;/font&gt;" style="text;strokeColor=none;align=center;fillColor=none;html=1;verticalAlign=middle;whiteSpace=wrap;rounded=0;" vertex="1" parent="1">
          <mxGeometry x="490" y="1040" width="120" height="30" as="geometry" />
        </mxCell>
        <mxCell id="4SjUEF4Vs4CtEPpjbndP-83" value="" style="endArrow=classic;html=1;rounded=0;strokeColor=#FF99FF;strokeWidth=3;exitX=0;exitY=0.5;exitDx=0;exitDy=0;entryX=1;entryY=0;entryDx=0;entryDy=0;" edge="1" parent="1" source="4SjUEF4Vs4CtEPpjbndP-44" target="4SjUEF4Vs4CtEPpjbndP-50">
          <mxGeometry width="50" height="50" relative="1" as="geometry">
            <mxPoint x="290" y="1015" as="sourcePoint" />
            <mxPoint x="290" y="1095" as="targetPoint" />
          </mxGeometry>
        </mxCell>
        <mxCell id="4SjUEF4Vs4CtEPpjbndP-84" value="" style="ellipse;whiteSpace=wrap;html=1;aspect=fixed;strokeColor=#FF99FF;fillColor=#FF99FF;" vertex="1" parent="1">
          <mxGeometry x="640" y="1160" width="80" height="80" as="geometry" />
        </mxCell>
        <mxCell id="4SjUEF4Vs4CtEPpjbndP-85" value="" style="ellipse;whiteSpace=wrap;html=1;aspect=fixed;strokeColor=#FF99FF;fillColor=#FF99FF;" vertex="1" parent="1">
          <mxGeometry x="420" y="1160" width="80" height="80" as="geometry" />
        </mxCell>
        <mxCell id="4SjUEF4Vs4CtEPpjbndP-86" value="" style="endArrow=classic;html=1;rounded=0;strokeColor=#FF99FF;strokeWidth=3;exitX=0;exitY=0.5;exitDx=0;exitDy=0;entryX=1;entryY=0.5;entryDx=0;entryDy=0;" edge="1" parent="1" source="4SjUEF4Vs4CtEPpjbndP-85" target="4SjUEF4Vs4CtEPpjbndP-50">
          <mxGeometry width="50" height="50" relative="1" as="geometry">
            <mxPoint x="420" y="970" as="sourcePoint" />
            <mxPoint x="278" y="1142" as="targetPoint" />
          </mxGeometry>
        </mxCell>
        <mxCell id="4SjUEF4Vs4CtEPpjbndP-87" value="" style="endArrow=classic;html=1;rounded=0;strokeColor=#FF99FF;strokeWidth=3;exitX=1;exitY=0.5;exitDx=0;exitDy=0;entryX=0;entryY=0.5;entryDx=0;entryDy=0;" edge="1" parent="1" source="4SjUEF4Vs4CtEPpjbndP-85" target="4SjUEF4Vs4CtEPpjbndP-84">
          <mxGeometry width="50" height="50" relative="1" as="geometry">
            <mxPoint x="565" y="1300" as="sourcePoint" />
            <mxPoint x="425" y="1260" as="targetPoint" />
          </mxGeometry>
        </mxCell>
        <mxCell id="4SjUEF4Vs4CtEPpjbndP-88" value="&lt;font color=&quot;#ff0000&quot;&gt;pers:GivenName&lt;/font&gt;&lt;span style=&quot;color: rgba(0, 0, 0, 0); font-family: monospace; font-size: 0px; text-align: start; text-wrap: nowrap;&quot;&gt;%3CmxGraphModel%3E%3Croot%3E%3CmxCell%20id%3D%220%22%2F%3E%3CmxCell%20id%3D%221%22%20parent%3D%220%22%2F%3E%3CmxCell%20id%3D%222%22%20value%3D%22%26lt%3Bfont%20color%3D%26quot%3B%23ff0000%26quot%3B%26gt%3Bpers%3APerson%26lt%3B%2Ffont%26gt%3B%22%20style%3D%22text%3BstrokeColor%3Dnone%3Balign%3Dcenter%3BfillColor%3Dnone%3Bhtml%3D1%3BverticalAlign%3Dmiddle%3BwhiteSpace%3Dwrap%3Brounded%3D0%3B%22%20vertex%3D%221%22%20parent%3D%221%22%3E%3CmxGeometry%20x%3D%22150%22%20y%3D%2240%22%20width%3D%22120%22%20height%3D%2230%22%20as%3D%22geometry%22%2F%3E%3C%2FmxCell%3E%3C%2Froot%3E%3C%2FmxGraphModel%3E&lt;/span&gt;" style="text;strokeColor=none;align=center;fillColor=none;html=1;verticalAlign=middle;whiteSpace=wrap;rounded=0;" vertex="1" parent="1">
          <mxGeometry x="400" y="1250" width="120" height="30" as="geometry" />
        </mxCell>
        <mxCell id="4SjUEF4Vs4CtEPpjbndP-89" value="&lt;font color=&quot;#ffffff&quot;&gt;rdfs:Literal&lt;/font&gt;" style="text;strokeColor=none;align=center;fillColor=none;html=1;verticalAlign=middle;whiteSpace=wrap;rounded=0;" vertex="1" parent="1">
          <mxGeometry x="630" y="1130" width="120" height="30" as="geometry" />
        </mxCell>
        <mxCell id="4SjUEF4Vs4CtEPpjbndP-90" value="&lt;font color=&quot;#ff0000&quot;&gt;prov:Province&lt;/font&gt;" style="text;strokeColor=none;align=center;fillColor=none;html=1;verticalAlign=middle;whiteSpace=wrap;rounded=0;" vertex="1" parent="1">
          <mxGeometry x="110" y="1110" width="120" height="30" as="geometry" />
        </mxCell>
        <mxCell id="4SjUEF4Vs4CtEPpjbndP-93" value="" style="endArrow=classic;html=1;rounded=0;strokeColor=#FF99FF;strokeWidth=3;exitX=0.5;exitY=1;exitDx=0;exitDy=0;" edge="1" parent="1" source="4SjUEF4Vs4CtEPpjbndP-50">
          <mxGeometry width="50" height="50" relative="1" as="geometry">
            <mxPoint x="180" y="1320" as="sourcePoint" />
            <mxPoint x="240" y="1320" as="targetPoint" />
          </mxGeometry>
        </mxCell>
        <mxCell id="4SjUEF4Vs4CtEPpjbndP-94" value="" style="ellipse;whiteSpace=wrap;html=1;aspect=fixed;strokeColor=#FF99FF;fillColor=#FF99FF;" vertex="1" parent="1">
          <mxGeometry x="200" y="1320" width="80" height="80" as="geometry" />
        </mxCell>
        <mxCell id="4SjUEF4Vs4CtEPpjbndP-95" value="&lt;font color=&quot;#ffffff&quot;&gt;owl:Class&lt;/font&gt;" style="text;strokeColor=none;align=center;fillColor=none;html=1;verticalAlign=middle;whiteSpace=wrap;rounded=0;" vertex="1" parent="1">
          <mxGeometry x="180" y="1400" width="120" height="30" as="geometry" />
        </mxCell>
      </root>
    </mxGraphModel>
  </diagram>
</mxfile>
